<?xml version="1.0" encoding="UTF-8" standalone="no"?>
<!-- Created with Inkscape (http://www.inkscape.org/) -->

<svg
   width="128.0px"
   height="128.0px"
   viewBox="0 0 128.0 128.0"
   version="1.1"
   id="SVGRoot"
   sodipodi:docname="app_icon.svg"
   inkscape:version="1.2 (dc2aedaf03, 2022-05-15)"
   xmlns:inkscape="http://www.inkscape.org/namespaces/inkscape"
   xmlns:sodipodi="http://sodipodi.sourceforge.net/DTD/sodipodi-0.dtd"
   xmlns="http://www.w3.org/2000/svg"
   xmlns:svg="http://www.w3.org/2000/svg">
  <sodipodi:namedview
     id="namedview1055"
     pagecolor="#ffffff"
     bordercolor="#666666"
     borderopacity="1.0"
     inkscape:showpageshadow="2"
     inkscape:pageopacity="0.0"
     inkscape:pagecheckerboard="0"
     inkscape:deskcolor="#d1d1d1"
     inkscape:document-units="px"
     showgrid="true"
     inkscape:zoom="5"
     inkscape:cx="64"
     inkscape:cy="70.1"
     inkscape:window-width="1842"
     inkscape:window-height="1057"
     inkscape:window-x="1150"
     inkscape:window-y="455"
     inkscape:window-maximized="1"
     inkscape:current-layer="layer1">
    <inkscape:grid
       type="xygrid"
       id="grid1541" />
  </sodipodi:namedview>
  <defs
     id="defs1050">
    <rect
       x="-47.6"
       y="35"
       width="99.4"
       height="59.4"
       id="rect5705" />
  </defs>
  <g
     inkscape:label="Layer 1"
     inkscape:groupmode="layer"
     id="layer1">
    <g
       id="g8482"
       transform="matrix(1.1757682,0,0,1.1757682,-11.249164,-18.949165)"
       style="stroke-width:0.850508">
      <rect
         style="fill:#ffea00;fill-opacity:1;stroke:#e5bf00;stroke-width:3.40203;stroke-linecap:round;stroke-linejoin:bevel;stroke-dasharray:none;stroke-opacity:1"
         id="rect2376"
         width="80"
         height="80"
         x="11.914212"
         y="34.141178"
         rx="16"
         ry="15.999999"
         transform="rotate(-10)" />
      <g
         aria-label="Lorem ipsum
dolor sit amet,
consectetur
adipiscing elit,"
         transform="matrix(0.91916554,-0.18604927,0.16207369,1.0551378,0,0)"
         id="text5884"
         style="font-weight:bold;font-size:10.1888px;line-height:1.25;font-family:'Noto Serif';-inkscape-font-specification:'Noto Serif, Bold';letter-spacing:0px;word-spacing:0px;opacity:1;fill:#663d00;stroke-width:0.850508">
        <path
           d="m 19.765387,54.845909 v -0.540006 h 0.42793 q 0.224153,0 0.366796,-0.112077 0.152832,-0.112077 0.152832,-0.550195 v -4.870247 q 0,-0.438118 -0.152832,-0.550195 -0.142643,-0.112077 -0.366796,-0.112077 h -0.42793 v -0.540006 h 3.515136 v 0.540006 h -0.42793 q -0.213964,0 -0.366796,0.112077 -0.152832,0.101888 -0.152832,0.50944 v 5.491763 h 1.895116 q 0.34642,0 0.550196,-0.224153 0.203776,-0.234343 0.295475,-0.662272 l 0.163021,-0.76416 h 0.570572 l -0.07132,2.272102 z"
           id="path8188"
           style="stroke-width:0.850508" />
        <path
           d="m 29.251153,54.947797 q -1.222656,0 -1.925683,-0.703027 -0.703027,-0.713216 -0.703027,-2.149837 0,-1.436621 0.67246,-2.139648 0.672461,-0.703027 1.986816,-0.703027 1.222656,0 1.925684,0.703027 0.703027,0.703027 0.703027,2.139648 0,1.436621 -0.68265,2.149837 -0.672461,0.703027 -1.976627,0.703027 z m 0.02038,-0.641894 q 0.59095,0 0.825292,-0.560384 0.234343,-0.570573 0.234343,-1.650586 0,-1.090201 -0.244531,-1.640397 -0.234343,-0.550195 -0.825293,-0.550195 -0.590951,0 -0.825293,0.550195 -0.234342,0.550196 -0.234342,1.640397 0,1.080013 0.234342,1.650586 0.244531,0.560384 0.835482,0.560384 z"
           id="path8190"
           style="stroke-width:0.850508" />
        <path
           d="m 32.593089,54.845909 v -0.540006 h 0.03057 q 0.346419,0 0.560384,-0.122266 0.224154,-0.132454 0.224154,-0.611328 v -2.954752 q 0,-0.448307 -0.203776,-0.570573 -0.193587,-0.122265 -0.529818,-0.122265 h -0.03057 v -0.540007 h 2.058137 l 0.203776,0.794727 h 0.05094 q 0.203776,-0.458496 0.50944,-0.68265 0.305664,-0.234342 0.927181,-0.234342 1.171712,0 1.171712,0.825293 0,0.468684 -0.346419,0.733593 -0.336231,0.25472 -0.947559,0.25472 0,-0.417741 -0.112076,-0.631705 -0.101888,-0.213965 -0.387175,-0.213965 -0.264908,0 -0.427929,0.183398 -0.163021,0.183399 -0.244531,0.458496 -0.08151,0.264909 -0.112077,0.540007 -0.03057,0.275097 -0.03057,0.448307 v 1.762662 q 0,0.448307 0.203776,0.570573 0.203776,0.112077 0.50944,0.112077 h 0.326042 v 0.540006 z"
           id="path8192"
           style="stroke-width:0.850508" />
        <path
           d="m 40.835834,54.947797 q -1.304166,0 -1.976627,-0.733593 -0.662272,-0.733594 -0.662272,-2.068327 0,-1.436621 0.652083,-2.160025 0.662272,-0.733594 1.874739,-0.733594 1.11058,0 1.742285,0.621517 0.641895,0.621517 0.641895,1.833984 v 0.519629 H 39.76601 q 0.03057,1.029068 0.376986,1.497753 0.356608,0.458496 0.988313,0.458496 0.529818,0 0.896615,-0.234342 0.366797,-0.244531 0.540006,-0.590951 0.275098,0.152832 0.275098,0.499252 0,0.438118 -0.489063,0.76416 -0.489062,0.326041 -1.518131,0.326041 z m -1.049446,-3.372493 h 1.762662 q 0,-0.784537 -0.183398,-1.222656 -0.183399,-0.438118 -0.621517,-0.438118 -0.42793,0 -0.68265,0.42793 -0.25472,0.427929 -0.275097,1.232844 z"
           id="path8194"
           style="stroke-width:0.850508" />
        <path
           d="m 43.739634,54.845909 v -0.540006 h 0.02038 q 0.346419,0 0.570573,-0.122266 0.224153,-0.122265 0.224153,-0.580761 v -3.046452 q 0,-0.427929 -0.203776,-0.540006 -0.193587,-0.122266 -0.529817,-0.122266 h -0.03057 v -0.50944 h 2.139648 l 0.132455,0.723405 h 0.05094 q 0.203776,-0.376985 0.438118,-0.560384 0.244531,-0.183398 0.519629,-0.234342 0.275097,-0.06113 0.601139,-0.06113 0.560384,0 0.957747,0.203776 0.397363,0.203776 0.580762,0.652083 h 0.0917 q 0.203776,-0.376985 0.458496,-0.560384 0.25472,-0.183398 0.550195,-0.234342 0.295475,-0.06113 0.611328,-0.06113 0.784538,0 1.232845,0.468685 0.448307,0.468685 0.448307,1.497753 v 2.363802 q 0,0.468685 0.163021,0.601139 0.173209,0.122266 0.519629,0.122266 h 0.03057 v 0.540006 H 51.055192 V 51.4938 q 0,-0.662272 -0.183398,-1.01888 -0.183398,-0.356608 -0.631706,-0.356608 -0.326041,0 -0.519628,0.203776 -0.193588,0.193587 -0.285287,0.529818 -0.08151,0.326041 -0.08151,0.723404 v 2.007194 q 0,0.468685 0.163021,0.601139 0.173209,0.122266 0.519628,0.122266 h 0.03057 v 0.540006 H 47.804968 V 51.4938 q 0,-0.662272 -0.183398,-1.01888 -0.183399,-0.356608 -0.631706,-0.356608 -0.33623,0 -0.529817,0.224154 -0.193587,0.213964 -0.275098,0.580761 -0.08151,0.356608 -0.08151,0.774349 v 1.946061 q 0,0.427929 0.193587,0.550195 0.203776,0.112077 0.540006,0.112077 h 0.03057 v 0.540006 z"
           id="path8196"
           style="stroke-width:0.850508" />
        <path
           d="m 57.973389,48.46772 q -0.366797,0 -0.621517,-0.173209 -0.244531,-0.183399 -0.244531,-0.560384 0,-0.387175 0.244531,-0.560384 0.25472,-0.17321 0.621517,-0.17321 0.356608,0 0.611328,0.17321 0.264908,0.173209 0.264908,0.560384 0,0.376985 -0.264908,0.560384 -0.25472,0.173209 -0.611328,0.173209 z m -1.569076,6.378189 v -0.540006 h 0.122266 q 0.152832,0 0.315853,-0.04075 0.173209,-0.05094 0.285286,-0.193588 0.122266,-0.142643 0.122266,-0.427929 v -3.097395 q 0,-0.264909 -0.122266,-0.397364 -0.122265,-0.142643 -0.295475,-0.183398 -0.163021,-0.04075 -0.305664,-0.04075 h -0.122266 v -0.540007 h 2.394368 v 4.258919 q 0,0.285286 0.112077,0.427929 0.122266,0.142644 0.285287,0.193588 0.173209,0.04075 0.326041,0.04075 h 0.122266 v 0.540006 z"
           id="path8198"
           style="stroke-width:0.850508" />
        <path
           d="m 59.950011,57.291221 v -0.540006 h 0.122265 q 0.152832,0 0.315853,-0.05094 0.17321,-0.04076 0.285287,-0.183399 0.122265,-0.142643 0.122265,-0.427929 v -5.451008 q 0,-0.468685 -0.193587,-0.590951 -0.193587,-0.122265 -0.489062,-0.122265 h -0.07132 v -0.540007 h 1.997005 l 0.183398,0.794727 h 0.04075 q 0.224154,-0.397363 0.590951,-0.641895 0.376985,-0.25472 0.967936,-0.25472 1.01888,0 1.548697,0.68265 0.540007,0.68265 0.540007,2.170214 0,1.477376 -0.529818,2.160026 -0.529817,0.672461 -1.518131,0.672461 -0.580762,0 -0.947558,-0.213965 -0.356608,-0.224154 -0.580762,-0.601139 h -0.07132 q 0.02038,0.142643 0.04076,0.387174 0.02038,0.234343 0.03057,0.458496 0.01019,0.234343 0.01019,0.387175 v 0.703027 q 0,0.285286 0.112077,0.427929 0.122265,0.142643 0.285286,0.183399 0.17321,0.05094 0.326042,0.05094 h 0.224153 v 0.540006 z m 3.433625,-3.077017 q 0.50944,0 0.733594,-0.50944 0.224154,-0.519629 0.224154,-1.558887 0,-1.01888 -0.224154,-1.558886 -0.224154,-0.540007 -0.723405,-0.540007 -0.611328,0 -0.835481,0.540007 -0.213965,0.540006 -0.213965,1.548697 0,1.059636 0.213965,1.569076 0.224153,0.50944 0.825292,0.50944 z"
           id="path8200"
           style="stroke-width:0.850508" />
        <path
           d="m 68.74295,54.947797 q -1.110579,0 -1.579264,-0.33623 -0.468684,-0.346419 -0.468684,-0.855859 0,-0.336231 0.16302,-0.499252 0.163021,-0.16302 0.387175,-0.213964 0.224153,-0.06113 0.397363,-0.06113 0,0.631705 0.295475,0.998502 0.305664,0.366797 0.804915,0.366797 0.529818,0 0.76416,-0.203776 0.244531,-0.203776 0.244531,-0.489062 0,-0.336231 -0.264908,-0.550196 -0.264909,-0.213964 -0.988314,-0.468684 -0.825293,-0.285287 -1.263411,-0.672461 -0.438118,-0.397363 -0.438118,-1.080013 0,-0.815104 0.601139,-1.212467 0.601139,-0.407552 1.589453,-0.407552 0.641894,0 1.029068,0.142643 0.397363,0.132454 0.570573,0.356608 0.183398,0.213965 0.183398,0.448307 0,0.346419 -0.244531,0.529818 -0.234342,0.173209 -0.794726,0.173209 0,-0.50944 -0.224154,-0.784537 -0.224153,-0.285287 -0.67246,-0.285287 -0.326042,0 -0.580762,0.163021 -0.244531,0.152832 -0.244531,0.468685 0,0.213965 0.112077,0.376986 0.122265,0.16302 0.427929,0.315852 0.305664,0.152832 0.855859,0.34642 0.68265,0.234342 1.110579,0.621516 0.438119,0.376986 0.438119,1.01888 0,0.845671 -0.580762,1.324544 Q 69.792397,54.9478 68.74295,54.9478 Z"
           id="path8202"
           style="stroke-width:0.850508" />
        <path
           d="m 73.990189,54.947797 q -0.794726,0 -1.222656,-0.489062 -0.427929,-0.499251 -0.427929,-1.52832 v -2.282291 q 0,-0.448308 -0.163021,-0.580762 -0.163021,-0.142643 -0.529818,-0.142643 h -0.02038 v -0.540007 h 2.261913 v 3.260416 q 0,0.652084 0.163021,1.049447 0.163021,0.387174 0.611328,0.387174 0.489062,0 0.703027,-0.417741 0.224154,-0.41774 0.224154,-1.130956 v -1.95625 q 0,-0.438118 -0.224154,-0.540006 -0.213965,-0.112077 -0.50944,-0.112077 h -0.03057 v -0.540007 h 2.312857 v 4.279296 q 0,0.448308 0.193588,0.550196 0.193587,0.0917 0.489062,0.0917 h 0.08151 V 54.84591 H 75.87511 l -0.224153,-0.723405 h -0.05094 q -0.305664,0.529818 -0.723405,0.68265 -0.407552,0.142643 -0.886426,0.142643 z"
           id="path8204"
           style="stroke-width:0.850508" />
        <path
           d="m 78.361184,54.845909 v -0.540006 h 0.02038 q 0.34642,0 0.570573,-0.122266 0.224154,-0.122265 0.224154,-0.580761 v -3.046452 q 0,-0.427929 -0.203776,-0.540006 -0.193587,-0.122266 -0.529818,-0.122266 h -0.03057 v -0.50944 h 2.139648 l 0.132454,0.723405 h 0.05094 q 0.203776,-0.376985 0.438119,-0.560384 0.244531,-0.183398 0.519628,-0.234342 0.275098,-0.06113 0.60114,-0.06113 0.560383,0 0.957747,0.203776 0.397363,0.203776 0.580761,0.652083 h 0.0917 q 0.203776,-0.376985 0.458496,-0.560384 0.25472,-0.183398 0.550196,-0.234342 0.295475,-0.06113 0.611328,-0.06113 0.784537,0 1.232844,0.468685 0.448308,0.468685 0.448308,1.497753 v 2.363802 q 0,0.468685 0.16302,0.601139 0.17321,0.122266 0.519629,0.122266 h 0.03057 v 0.540006 H 85.676741 V 51.4938 q 0,-0.662272 -0.183398,-1.01888 -0.183399,-0.356608 -0.631706,-0.356608 -0.326042,0 -0.519629,0.203776 -0.193587,0.193587 -0.285286,0.529818 -0.08151,0.326041 -0.08151,0.723404 v 2.007194 q 0,0.468685 0.163021,0.601139 0.17321,0.122266 0.519629,0.122266 h 0.03057 v 0.540006 H 82.426519 V 51.4938 q 0,-0.662272 -0.183398,-1.01888 -0.183399,-0.356608 -0.631706,-0.356608 -0.33623,0 -0.529818,0.224154 -0.193587,0.213964 -0.275097,0.580761 -0.08151,0.356608 -0.08151,0.774349 v 1.946061 q 0,0.427929 0.193588,0.550195 0.203776,0.112077 0.540006,0.112077 h 0.03057 v 0.540006 z"
           id="path8206"
           style="stroke-width:0.850508" />
        <path
           d="m 22.027301,67.683797 q -0.998503,0 -1.538509,-0.672461 -0.540007,-0.682649 -0.540007,-2.149837 0,-1.477376 0.529818,-2.170214 0.540006,-0.692838 1.52832,-0.692838 0.570573,0 0.93737,0.234342 0.366796,0.234342 0.580761,0.580762 h 0.07132 q -0.04076,-0.285287 -0.06113,-0.641895 -0.02038,-0.356608 -0.02038,-0.601139 v -0.560384 q 0,-0.417741 -0.244531,-0.519629 -0.244531,-0.112077 -0.580761,-0.112077 h -0.08151 v -0.540006 h 2.455501 v 6.490266 q 0,0.315852 0.112077,0.468684 0.122265,0.142644 0.315853,0.193588 0.193587,0.05094 0.41774,0.05094 h 0.04076 v 0.540006 h -1.976628 l -0.285286,-0.794726 h -0.0917 q -0.224154,0.407552 -0.601139,0.652083 -0.376986,0.244531 -0.967936,0.244531 z m 0.438118,-0.76416 q 0.601139,0 0.825293,-0.50944 0.224153,-0.519629 0.224153,-1.569075 0,-1.008691 -0.224153,-1.548698 -0.224154,-0.540006 -0.825293,-0.540006 -0.50944,0 -0.733594,0.540006 -0.213964,0.540007 -0.213964,1.558887 0,1.039257 0.213964,1.558886 0.224154,0.50944 0.733594,0.50944 z"
           id="path8208"
           style="stroke-width:0.850508" />
        <path
           d="m 29.200217,67.683797 q -1.222656,0 -1.925683,-0.703027 -0.703027,-0.713216 -0.703027,-2.149837 0,-1.436621 0.672461,-2.139648 0.67246,-0.703027 1.986816,-0.703027 1.222656,0 1.925683,0.703027 0.703027,0.703027 0.703027,2.139648 0,1.436621 -0.68265,2.149837 -0.67246,0.703027 -1.976627,0.703027 z m 0.02038,-0.641894 q 0.59095,0 0.825293,-0.560384 0.234342,-0.570573 0.234342,-1.650586 0,-1.090202 -0.244531,-1.640397 -0.234343,-0.550195 -0.825293,-0.550195 -0.59095,0 -0.825293,0.550195 -0.234342,0.550195 -0.234342,1.640397 0,1.080013 0.234342,1.650586 0.244531,0.560384 0.835482,0.560384 z"
           id="path8210"
           style="stroke-width:0.850508" />
        <path
           d="m 32.511587,67.581909 v -0.540006 h 0.122265 q 0.152832,0 0.315853,-0.04076 0.17321,-0.05094 0.285286,-0.193587 0.122266,-0.142643 0.122266,-0.427929 V 60.99994 q 0,-0.264909 -0.122266,-0.397363 -0.122265,-0.142643 -0.295475,-0.183398 -0.163021,-0.04076 -0.305664,-0.04076 h -0.122265 v -0.540006 h 2.394368 v 6.54121 q 0,0.285286 0.112076,0.427929 0.122266,0.142643 0.285287,0.193587 0.173209,0.04076 0.326041,0.04076 h 0.122266 v 0.540006 z"
           id="path8212"
           style="stroke-width:0.850508" />
        <path
           d="m 39.032412,67.683797 q -1.222656,0 -1.925684,-0.703027 -0.703027,-0.713216 -0.703027,-2.149837 0,-1.436621 0.672461,-2.139648 0.672461,-0.703027 1.986816,-0.703027 1.222656,0 1.925683,0.703027 0.703027,0.703027 0.703027,2.139648 0,1.436621 -0.682649,2.149837 -0.672461,0.703027 -1.976627,0.703027 z m 0.02038,-0.641894 q 0.590951,0 0.825293,-0.560384 0.234342,-0.570573 0.234342,-1.650586 0,-1.090202 -0.244531,-1.640397 -0.234342,-0.550195 -0.825293,-0.550195 -0.59095,0 -0.825292,0.550195 -0.234343,0.550195 -0.234343,1.640397 0,1.080013 0.234343,1.650586 0.244531,0.560384 0.835481,0.560384 z"
           id="path8214"
           style="stroke-width:0.850508" />
        <path
           d="m 42.374346,67.581909 v -0.540006 h 0.03057 q 0.346419,0 0.560384,-0.122266 0.224153,-0.132454 0.224153,-0.611328 v -2.954752 q 0,-0.448307 -0.203776,-0.570573 -0.193587,-0.122265 -0.529817,-0.122265 h -0.03057 v -0.540007 h 2.058138 l 0.203776,0.794727 h 0.05094 q 0.203776,-0.458496 0.50944,-0.68265 0.305664,-0.234342 0.927181,-0.234342 1.171712,0 1.171712,0.825292 0,0.468685 -0.346419,0.733594 -0.336231,0.25472 -0.947559,0.25472 0,-0.417741 -0.112077,-0.631706 -0.101888,-0.213964 -0.387174,-0.213964 -0.264909,0 -0.42793,0.183398 -0.16302,0.183398 -0.244531,0.458496 -0.08151,0.264909 -0.112077,0.540006 -0.03057,0.275098 -0.03057,0.448308 v 1.762662 q 0,0.448307 0.203776,0.570573 0.203776,0.112077 0.50944,0.112077 h 0.326042 v 0.540006 z"
           id="path8216"
           style="stroke-width:0.850508" />
        <path
           d="m 52.502024,67.683797 q -1.11058,0 -1.579264,-0.33623 -0.468685,-0.34642 -0.468685,-0.85586 0,-0.33623 0.163021,-0.499251 0.16302,-0.163021 0.387174,-0.213965 0.224154,-0.06113 0.397363,-0.06113 0,0.631705 0.295475,0.998502 0.305664,0.366797 0.804916,0.366797 0.529817,0 0.76416,-0.203776 0.244531,-0.203776 0.244531,-0.489063 0,-0.33623 -0.264909,-0.550195 -0.264909,-0.213965 -0.988314,-0.468685 -0.825292,-0.285286 -1.263411,-0.67246 -0.438118,-0.397364 -0.438118,-1.080013 0,-0.815104 0.601139,-1.212467 0.601139,-0.407552 1.589453,-0.407552 0.641894,0 1.029069,0.142643 0.397363,0.132454 0.570572,0.356608 0.183399,0.213965 0.183399,0.448307 0,0.346419 -0.244531,0.529818 -0.234343,0.173209 -0.794727,0.173209 0,-0.50944 -0.224153,-0.784537 -0.224154,-0.285287 -0.672461,-0.285287 -0.326042,0 -0.580762,0.163021 -0.244531,0.152832 -0.244531,0.468685 0,0.213965 0.112077,0.376985 0.122265,0.163021 0.427929,0.315853 0.305664,0.152832 0.85586,0.346419 0.682649,0.234343 1.110579,0.621517 0.438118,0.376986 0.438118,1.01888 0,0.845671 -0.580761,1.324544 -0.580762,0.468685 -1.630208,0.468685 z"
           id="path8218"
           style="stroke-width:0.850508" />
        <path
           d="m 56.862839,61.20372 q -0.366797,0 -0.621517,-0.173209 -0.244531,-0.183399 -0.244531,-0.560384 0,-0.387175 0.244531,-0.560384 0.25472,-0.17321 0.621517,-0.17321 0.356608,0 0.611328,0.17321 0.264909,0.173209 0.264909,0.560384 0,0.376985 -0.264909,0.560384 -0.25472,0.173209 -0.611328,0.173209 z m -1.569075,6.378189 v -0.540006 h 0.122265 q 0.152832,0 0.315853,-0.04076 0.17321,-0.05094 0.285286,-0.193587 0.122266,-0.142643 0.122266,-0.427929 v -3.097396 q 0,-0.264908 -0.122266,-0.397363 -0.122265,-0.142643 -0.295475,-0.183398 -0.163021,-0.04075 -0.305664,-0.04075 h -0.122265 v -0.540007 h 2.394368 v 4.258919 q 0,0.285286 0.112076,0.427929 0.122266,0.142643 0.285287,0.193587 0.173209,0.04076 0.326041,0.04076 h 0.122266 v 0.540006 z"
           id="path8220"
           style="stroke-width:0.850508" />
        <path
           d="m 61.182881,67.683797 q -0.68265,0 -1.090202,-0.356608 -0.407552,-0.356608 -0.407552,-1.253222 v -3.260416 h -0.76416 v -0.519629 q 0.326042,0 0.580762,-0.122266 0.264909,-0.132454 0.417741,-0.305664 0.315853,-0.33623 0.468685,-1.008691 h 0.84567 v 1.263411 h 1.304166 v 0.692839 h -1.304166 v 3.158528 q 0,0.458496 0.152832,0.67246 0.163021,0.213965 0.519629,0.213965 0.203776,0 0.376985,-0.02038 0.183399,-0.03057 0.34642,-0.07132 v 0.662272 q -0.163021,0.07132 -0.540007,0.163021 -0.366797,0.0917 -0.906803,0.0917 z"
           id="path8222"
           style="stroke-width:0.850508" />
        <path
           d="m 67.540702,67.683797 q -0.67246,0 -1.141145,-0.407552 -0.458496,-0.407552 -0.458496,-1.253222 0,-0.825293 0.560384,-1.222656 0.570573,-0.397364 1.721907,-0.438119 l 0.835482,-0.03057 v -0.560384 q 0,-0.50944 -0.112077,-0.835482 -0.101888,-0.326041 -0.519629,-0.326041 -0.387174,0 -0.540006,0.315852 -0.142644,0.315853 -0.142644,0.784538 -0.682649,0 -1.029068,-0.152832 -0.346419,-0.152832 -0.346419,-0.529818 0,-0.376985 0.285286,-0.601139 0.285286,-0.224153 0.753971,-0.326041 0.478874,-0.112077 1.059635,-0.112077 1.069824,0 1.599642,0.387174 0.540006,0.387175 0.540006,1.344922 v 2.598144 q 0,0.417741 0.132455,0.570573 0.132454,0.152832 0.478873,0.152832 h 0.04076 v 0.540006 h -1.895116 l -0.213965,-0.703027 h -0.0917 q -0.224154,0.275097 -0.42793,0.458496 -0.193587,0.173209 -0.448307,0.25472 -0.25472,0.0917 -0.641895,0.0917 z m 0.560384,-0.743782 q 0.438119,0 0.692839,-0.34642 0.264909,-0.356608 0.264909,-0.957747 v -0.76416 l -0.458496,0.03057 q -0.611328,0.03057 -0.845671,0.326041 -0.234342,0.285287 -0.234342,0.835482 0,0.876237 0.580761,0.876237 z"
           id="path8224"
           style="stroke-width:0.850508" />
        <path
           d="m 71.789441,67.581909 v -0.540006 h 0.02038 q 0.34642,0 0.570573,-0.122266 0.224154,-0.122266 0.224154,-0.580762 v -3.046451 q 0,-0.427929 -0.203776,-0.540006 -0.193587,-0.122266 -0.529818,-0.122266 h -0.03057 v -0.50944 h 2.139648 l 0.132454,0.723405 h 0.05094 q 0.203776,-0.376986 0.438119,-0.560384 0.244531,-0.183398 0.519628,-0.234342 0.275098,-0.06113 0.601139,-0.06113 0.560384,0 0.957748,0.203776 0.397363,0.203776 0.580761,0.652083 h 0.0917 q 0.203776,-0.376986 0.458496,-0.560384 0.25472,-0.183398 0.550196,-0.234342 0.295475,-0.06113 0.611328,-0.06113 0.784537,0 1.232844,0.468685 0.448308,0.468684 0.448308,1.497753 v 2.363802 q 0,0.468685 0.16302,0.601139 0.17321,0.122266 0.519629,0.122266 h 0.03057 v 0.540006 H 79.104998 V 64.2298 q 0,-0.662272 -0.183398,-1.01888 -0.183399,-0.356608 -0.631706,-0.356608 -0.326042,0 -0.519629,0.203776 -0.193587,0.193587 -0.285286,0.529817 -0.08151,0.326042 -0.08151,0.723405 v 2.007194 q 0,0.468685 0.163021,0.601139 0.17321,0.122266 0.519629,0.122266 h 0.03057 v 0.540006 H 75.854776 V 64.2298 q 0,-0.662272 -0.183399,-1.01888 -0.183398,-0.356608 -0.631705,-0.356608 -0.33623,0 -0.529818,0.224153 -0.193587,0.213965 -0.275097,0.580762 -0.08151,0.356608 -0.08151,0.774349 v 1.946061 q 0,0.427929 0.193588,0.550195 0.203776,0.112077 0.540006,0.112077 h 0.03057 v 0.540006 z"
           id="path8226"
           style="stroke-width:0.850508" />
        <path
           d="m 84.749595,67.683797 q -1.304166,0 -1.976627,-0.733594 -0.662272,-0.733593 -0.662272,-2.068326 0,-1.436621 0.652083,-2.160026 0.662272,-0.733593 1.87474,-0.733593 1.110579,0 1.742284,0.621517 0.641895,0.621516 0.641895,1.833984 v 0.519628 h -3.341927 q 0.03057,1.029069 0.376986,1.497754 0.356608,0.458496 0.988314,0.458496 0.529817,0 0.896614,-0.234342 0.366797,-0.244532 0.540006,-0.590951 0.275098,0.152832 0.275098,0.499251 0,0.438119 -0.489062,0.76416 -0.489063,0.326042 -1.518132,0.326042 z m -1.049446,-3.372493 h 1.762662 q 0,-0.784537 -0.183398,-1.222656 -0.183398,-0.438118 -0.621517,-0.438118 -0.427929,0 -0.682649,0.427929 -0.25472,0.42793 -0.275098,1.232845 z"
           id="path8228"
           style="stroke-width:0.850508" />
        <path
           d="m 89.9255,67.683797 q -0.68265,0 -1.090202,-0.356608 -0.407552,-0.356608 -0.407552,-1.253222 v -3.260416 h -0.76416 v -0.519629 q 0.326042,0 0.580762,-0.122266 0.264908,-0.132454 0.41774,-0.305664 0.315853,-0.33623 0.468685,-1.008691 h 0.845671 v 1.263411 h 1.304166 v 0.692839 h -1.304166 v 3.158528 q 0,0.458496 0.152832,0.67246 0.16302,0.213965 0.519628,0.213965 0.203776,0 0.376986,-0.02038 0.183398,-0.03057 0.346419,-0.07132 v 0.662272 q -0.163021,0.07132 -0.540006,0.163021 -0.366797,0.0917 -0.906803,0.0917 z"
           id="path8230"
           style="stroke-width:0.850508" />
        <path
           d="m 92.03459,69.150984 v -0.529817 q 0.438118,-0.163021 0.662272,-0.336231 0.234342,-0.163021 0.234342,-0.458496 0,-0.142643 -0.112077,-0.224153 -0.112077,-0.07132 -0.264909,-0.152832 -0.142643,-0.0917 -0.25472,-0.244532 -0.112076,-0.16302 -0.112076,-0.468684 0,-0.34642 0.203776,-0.519629 0.213964,-0.183399 0.529817,-0.183399 0.42793,0 0.68265,0.305664 0.25472,0.295476 0.25472,0.815104 0,0.652084 -0.417741,1.19209 -0.417741,0.540006 -1.406054,0.804915 z"
           id="path8232"
           style="stroke-width:0.850508" />
        <path
           d="m 22.485797,80.419797 q -0.743783,0 -1.314356,-0.264909 -0.570572,-0.275098 -0.896614,-0.886426 -0.315853,-0.621516 -0.315853,-1.660774 0,-1.10039 0.326042,-1.721907 0.33623,-0.631706 0.896614,-0.896615 0.570573,-0.264908 1.2736,-0.264908 0.988314,0 1.497754,0.315852 0.519629,0.305664 0.519629,0.753972 0,0.224153 -0.112077,0.41774 -0.101888,0.193588 -0.387175,0.326042 -0.285286,0.122266 -0.815104,0.122266 0,-0.356608 -0.06113,-0.652084 -0.06113,-0.295475 -0.203776,-0.478873 -0.142644,-0.183399 -0.397364,-0.183399 -0.295475,0 -0.519628,0.203776 -0.213965,0.193588 -0.336231,0.692839 -0.112077,0.489062 -0.112077,1.35511 0,1.029069 0.285287,1.548698 0.285286,0.50944 0.927181,0.50944 0.529817,0 0.916992,-0.234343 0.387174,-0.244531 0.560384,-0.59095 0.122265,0.08151 0.183398,0.203776 0.06113,0.122266 0.06113,0.264909 0,0.25472 -0.213965,0.519629 -0.203776,0.25472 -0.641894,0.427929 -0.438119,0.17321 -1.120768,0.17321 z"
           id="path8234"
           style="stroke-width:0.850508" />
        <path
           d="m 27.957187,80.419797 q -1.222656,0 -1.925684,-0.703027 -0.703027,-0.713216 -0.703027,-2.149837 0,-1.436621 0.672461,-2.139648 0.672461,-0.703027 1.986816,-0.703027 1.222656,0 1.925683,0.703027 0.703027,0.703027 0.703027,2.139648 0,1.436621 -0.682649,2.149837 -0.672461,0.703027 -1.976627,0.703027 z m 0.02038,-0.641895 q 0.590951,0 0.825293,-0.560384 0.234342,-0.570572 0.234342,-1.650585 0,-1.090202 -0.244531,-1.640397 -0.234342,-0.550195 -0.825293,-0.550195 -0.59095,0 -0.825292,0.550195 -0.234343,0.550195 -0.234343,1.640397 0,1.080013 0.234343,1.650585 0.244531,0.560384 0.835481,0.560384 z"
           id="path8236"
           style="stroke-width:0.850508" />
        <path
           d="m 31.299122,80.317909 v -0.540007 h 0.02038 q 0.346419,0 0.570573,-0.122265 0.224153,-0.122266 0.224153,-0.580762 V 76.05899 q 0,-0.427929 -0.203776,-0.540006 -0.193587,-0.122266 -0.529817,-0.122266 h -0.03057 v -0.540006 h 2.139648 l 0.132455,0.723405 h 0.05094 q 0.203776,-0.376986 0.438118,-0.560384 0.244531,-0.183399 0.519629,-0.234343 0.275098,-0.06113 0.601139,-0.06113 0.784538,0 1.232845,0.468684 0.448307,0.468685 0.448307,1.497754 V 79.0545 q 0,0.468684 0.163021,0.601139 0.17321,0.122265 0.519629,0.122265 h 0.03057 v 0.540007 h -2.261913 v -3.352115 q 0,-0.662272 -0.183399,-1.01888 -0.183398,-0.356608 -0.631705,-0.356608 -0.336231,0 -0.529818,0.224153 -0.193587,0.213965 -0.275098,0.580762 -0.08151,0.356608 -0.08151,0.774349 v 1.94606 q 0,0.42793 0.193587,0.550196 0.203776,0.112076 0.540007,0.112076 h 0.03057 v 0.540007 z"
           id="path8238"
           style="stroke-width:0.850508" />
        <path
           d="m 40.244886,80.419797 q -1.110579,0 -1.579264,-0.336231 -0.468685,-0.346419 -0.468685,-0.855859 0,-0.33623 0.163021,-0.499251 0.163021,-0.163021 0.387175,-0.213965 0.224153,-0.06113 0.397363,-0.06113 0,0.631706 0.295475,0.998503 0.305664,0.366797 0.804915,0.366797 0.529818,0 0.76416,-0.203776 0.244531,-0.203776 0.244531,-0.489063 0,-0.33623 -0.264908,-0.550195 -0.264909,-0.213965 -0.988314,-0.468685 -0.825293,-0.285286 -1.263411,-0.672461 -0.438119,-0.397363 -0.438119,-1.080012 0,-0.815104 0.60114,-1.212468 0.601139,-0.407552 1.589452,-0.407552 0.641895,0 1.029069,0.142644 0.397363,0.132454 0.570573,0.356608 0.183398,0.213964 0.183398,0.448307 0,0.346419 -0.244531,0.529817 -0.234342,0.17321 -0.794726,0.17321 0,-0.50944 -0.224154,-0.784538 -0.224153,-0.285286 -0.672461,-0.285286 -0.326041,0 -0.580761,0.163021 -0.244531,0.152832 -0.244531,0.468685 0,0.213964 0.112076,0.376985 0.122266,0.163021 0.42793,0.315853 0.305664,0.152832 0.855859,0.346419 0.68265,0.234343 1.110579,0.621517 0.438119,0.376986 0.438119,1.01888 0,0.84567 -0.580762,1.324544 -0.580761,0.468685 -1.630208,0.468685 z"
           id="path8240"
           style="stroke-width:0.850508" />
        <path
           d="m 45.981189,80.419797 q -1.304166,0 -1.976627,-0.733594 -0.662272,-0.733593 -0.662272,-2.068326 0,-1.436621 0.652083,-2.160026 0.662272,-0.733593 1.87474,-0.733593 1.110579,0 1.742284,0.621516 0.641895,0.621517 0.641895,1.833984 v 0.519629 h -3.341927 q 0.03057,1.029069 0.376986,1.497754 0.356608,0.458496 0.988314,0.458496 0.529817,0 0.896614,-0.234343 0.366797,-0.244531 0.540006,-0.59095 0.275098,0.152832 0.275098,0.499251 0,0.438119 -0.489062,0.76416 -0.489063,0.326042 -1.518132,0.326042 z m -1.049446,-3.372493 h 1.762662 q 0,-0.784538 -0.183398,-1.222656 -0.183398,-0.438118 -0.621517,-0.438118 -0.427929,0 -0.682649,0.427929 -0.25472,0.42793 -0.275098,1.232845 z"
           id="path8242"
           style="stroke-width:0.850508" />
        <path
           d="m 51.686909,80.419797 q -0.743782,0 -1.314355,-0.264909 -0.570573,-0.275098 -0.896614,-0.886426 -0.315853,-0.621516 -0.315853,-1.660774 0,-1.10039 0.326042,-1.721907 0.33623,-0.631706 0.896614,-0.896615 0.570573,-0.264908 1.2736,-0.264908 0.988314,0 1.497754,0.315852 0.519628,0.305664 0.519628,0.753972 0,0.224153 -0.112076,0.41774 -0.101888,0.193588 -0.387175,0.326042 -0.285286,0.122266 -0.815104,0.122266 0,-0.356608 -0.06113,-0.652084 -0.06113,-0.295475 -0.203776,-0.478873 -0.142643,-0.183399 -0.397363,-0.183399 -0.295475,0 -0.519629,0.203776 -0.213964,0.193588 -0.33623,0.692839 -0.112077,0.489062 -0.112077,1.35511 0,1.029069 0.285287,1.548698 0.285286,0.50944 0.92718,0.50944 0.529818,0 0.916992,-0.234343 0.387175,-0.244531 0.560384,-0.59095 0.122266,0.08151 0.183399,0.203776 0.06113,0.122266 0.06113,0.264909 0,0.25472 -0.213965,0.519629 -0.203776,0.25472 -0.641895,0.427929 -0.438118,0.17321 -1.120768,0.17321 z"
           id="path8244"
           style="stroke-width:0.850508" />
        <path
           d="m 56.526593,80.419797 q -0.68265,0 -1.090202,-0.356608 -0.407552,-0.356608 -0.407552,-1.253223 V 75.54955 h -0.76416 v -0.519628 q 0.326042,0 0.580762,-0.122266 0.264909,-0.132454 0.417741,-0.305664 0.315852,-0.33623 0.468684,-1.008691 h 0.845671 v 1.263411 h 1.304166 v 0.692838 h -1.304166 v 3.158528 q 0,0.458496 0.152832,0.672461 0.163021,0.213965 0.519629,0.213965 0.203776,0 0.376985,-0.02038 0.183399,-0.03057 0.346419,-0.07132 v 0.662272 q -0.16302,0.07132 -0.540006,0.163021 -0.366797,0.0917 -0.906803,0.0917 z"
           id="path8246"
           style="stroke-width:0.850508" />
        <path
           d="m 61.29496,80.419797 q -1.304167,0 -1.976627,-0.733594 -0.662272,-0.733593 -0.662272,-2.068326 0,-1.436621 0.652083,-2.160026 0.662272,-0.733593 1.874739,-0.733593 1.110579,0 1.742285,0.621516 0.641894,0.621517 0.641894,1.833984 v 0.519629 h -3.341926 q 0.03057,1.029069 0.376985,1.497754 0.356608,0.458496 0.988314,0.458496 0.529818,0 0.896614,-0.234343 0.366797,-0.244531 0.540007,-0.59095 0.275097,0.152832 0.275097,0.499251 0,0.438119 -0.489062,0.76416 -0.489062,0.326042 -1.518131,0.326042 z m -1.049447,-3.372493 h 1.762663 q 0,-0.784538 -0.183399,-1.222656 -0.183398,-0.438118 -0.621516,-0.438118 -0.42793,0 -0.68265,0.427929 -0.25472,0.42793 -0.275098,1.232845 z"
           id="path8248"
           style="stroke-width:0.850508" />
        <path
           d="m 66.47086,80.419797 q -0.682649,0 -1.090201,-0.356608 -0.407552,-0.356608 -0.407552,-1.253223 V 75.54955 h -0.76416 v -0.519628 q 0.326041,0 0.580761,-0.122266 0.264909,-0.132454 0.417741,-0.305664 0.315853,-0.33623 0.468685,-1.008691 h 0.84567 v 1.263411 h 1.304167 v 0.692838 h -1.304167 v 3.158528 q 0,0.458496 0.152832,0.672461 0.163021,0.213965 0.519629,0.213965 0.203776,0 0.376986,-0.02038 0.183398,-0.03057 0.346419,-0.07132 v 0.662272 q -0.163021,0.07132 -0.540007,0.163021 -0.366796,0.0917 -0.906803,0.0917 z"
           id="path8250"
           style="stroke-width:0.850508" />
        <path
           d="m 70.750165,80.419797 q -0.794727,0 -1.222656,-0.489063 -0.42793,-0.499251 -0.42793,-1.52832 v -2.282291 q 0,-0.448307 -0.163021,-0.580761 -0.163021,-0.142644 -0.529817,-0.142644 h -0.02038 v -0.540006 h 2.261914 v 3.260416 q 0,0.652083 0.16302,1.049446 0.163021,0.387175 0.611328,0.387175 0.489063,0 0.703028,-0.417741 0.224153,-0.417741 0.224153,-1.130957 v -1.956249 q 0,-0.438119 -0.224153,-0.540007 -0.213965,-0.112077 -0.50944,-0.112077 h -0.03057 v -0.540006 h 2.312858 v 4.279296 q 0,0.448307 0.193587,0.550195 0.193587,0.0917 0.489062,0.0917 h 0.08151 v 0.540007 h -2.027571 l -0.224154,-0.723405 h -0.05094 q -0.305664,0.529818 -0.723405,0.68265 -0.407552,0.142643 -0.886425,0.142643 z"
           id="path8252"
           style="stroke-width:0.850508" />
        <path
           d="m 75.121155,80.317909 v -0.540007 h 0.03057 q 0.346419,0 0.560384,-0.122265 0.224153,-0.132455 0.224153,-0.611328 v -2.954752 q 0,-0.448307 -0.203776,-0.570573 -0.193587,-0.122266 -0.529817,-0.122266 h -0.03057 v -0.540006 h 2.058138 l 0.203776,0.794726 h 0.05094 q 0.203776,-0.458496 0.50944,-0.682649 0.305664,-0.234343 0.927181,-0.234343 1.171712,0 1.171712,0.825293 0,0.468685 -0.346419,0.733594 -0.336231,0.25472 -0.947559,0.25472 0,-0.417741 -0.112077,-0.631706 -0.101888,-0.213965 -0.387174,-0.213965 -0.264909,0 -0.42793,0.183399 -0.16302,0.183398 -0.244531,0.458496 -0.08151,0.264909 -0.112077,0.540006 -0.03057,0.275098 -0.03057,0.448307 v 1.762663 q 0,0.448307 0.203776,0.570573 0.203776,0.112076 0.50944,0.112076 h 0.326042 v 0.540007 z"
           id="path8254"
           style="stroke-width:0.850508" />
        <path
           d="m 21.538238,93.155797 q -0.672461,0 -1.141145,-0.407552 -0.458496,-0.407552 -0.458496,-1.253223 0,-0.825293 0.560384,-1.222656 0.570572,-0.397363 1.721907,-0.438118 l 0.835481,-0.03057 v -0.560384 q 0,-0.50944 -0.112076,-0.835481 -0.101888,-0.326042 -0.519629,-0.326042 -0.387175,0 -0.540007,0.315853 -0.142643,0.315853 -0.142643,0.784538 -0.682649,0 -1.029069,-0.152832 -0.346419,-0.152832 -0.346419,-0.529818 0,-0.376986 0.285287,-0.601139 0.285286,-0.224154 0.753971,-0.326042 0.478873,-0.112077 1.059635,-0.112077 1.069824,0 1.599642,0.387175 0.540006,0.387174 0.540006,1.344921 v 2.598144 q 0,0.417741 0.132454,0.570573 0.132455,0.152832 0.478874,0.152832 h 0.04076 v 0.540007 h -1.895117 l -0.213964,-0.703028 h -0.0917 q -0.224153,0.275098 -0.427929,0.458496 -0.193587,0.17321 -0.448307,0.25472 -0.25472,0.0917 -0.641895,0.0917 z m 0.560384,-0.743783 q 0.438119,0 0.692839,-0.346419 0.264908,-0.356608 0.264908,-0.957747 v -0.76416 l -0.458496,0.03057 q -0.611328,0.03057 -0.84567,0.326042 -0.234342,0.285286 -0.234342,0.835481 0,0.876237 0.580761,0.876237 z"
           id="path8256"
           style="stroke-width:0.850508" />
        <path
           d="m 28.130401,93.155797 q -0.998502,0 -1.538508,-0.672461 -0.540007,-0.68265 -0.540007,-2.149837 0,-1.477376 0.529818,-2.170214 0.540006,-0.692839 1.52832,-0.692839 0.570573,0 0.937369,0.234343 0.366797,0.234342 0.580762,0.580761 h 0.07132 q -0.04076,-0.285286 -0.06113,-0.641894 -0.02038,-0.356608 -0.02038,-0.601139 v -0.560384 q 0,-0.417741 -0.244531,-0.519629 -0.244531,-0.112077 -0.580762,-0.112077 h -0.08151 v -0.540006 h 2.455501 v 6.490265 q 0,0.315853 0.112077,0.468685 0.122265,0.142643 0.315852,0.193587 0.193588,0.05094 0.417741,0.05094 h 0.04075 v 0.540007 H 30.076456 L 29.79117,92.259178 h -0.0917 q -0.224154,0.407552 -0.60114,0.652083 -0.376985,0.244532 -0.967936,0.244532 z m 0.438119,-0.76416 q 0.601139,0 0.825293,-0.50944 0.224153,-0.519629 0.224153,-1.569076 0,-1.008691 -0.224153,-1.548697 -0.224154,-0.540007 -0.825293,-0.540007 -0.50944,0 -0.733594,0.540007 -0.213965,0.540006 -0.213965,1.558886 0,1.039258 0.213965,1.558887 0.224154,0.50944 0.733594,0.50944 z"
           id="path8258"
           style="stroke-width:0.850508" />
        <path
           d="m 33.938019,86.67572 q -0.366797,0 -0.621517,-0.17321 -0.244531,-0.183398 -0.244531,-0.560384 0,-0.387174 0.244531,-0.560384 0.25472,-0.173209 0.621517,-0.173209 0.356608,0 0.611328,0.173209 0.264909,0.17321 0.264909,0.560384 0,0.376986 -0.264909,0.560384 -0.25472,0.17321 -0.611328,0.17321 z m -1.569075,6.378189 v -0.540007 h 0.122265 q 0.152832,0 0.315853,-0.04076 0.17321,-0.05094 0.285286,-0.193587 0.122266,-0.142643 0.122266,-0.42793 V 88.75423 q 0,-0.264909 -0.122266,-0.397363 -0.122265,-0.142643 -0.295475,-0.183399 -0.163021,-0.04076 -0.305664,-0.04076 h -0.122265 v -0.540006 h 2.394368 v 4.258918 q 0,0.285287 0.112076,0.42793 0.122266,0.142643 0.285287,0.193587 0.173209,0.04076 0.326041,0.04076 h 0.122266 v 0.540007 z"
           id="path8260"
           style="stroke-width:0.850508" />
        <path
           d="m 35.914639,95.499221 v -0.540007 h 0.122266 q 0.152832,0 0.315852,-0.05094 0.17321,-0.04076 0.285287,-0.183398 0.122265,-0.142643 0.122265,-0.42793 v -5.451008 q 0,-0.468685 -0.193587,-0.59095 -0.193587,-0.122266 -0.489062,-0.122266 h -0.07132 v -0.540006 h 1.997005 l 0.183398,0.794726 h 0.04076 q 0.224153,-0.397363 0.59095,-0.641894 0.376986,-0.25472 0.967936,-0.25472 1.01888,0 1.548698,0.682649 0.540006,0.68265 0.540006,2.170215 0,1.477376 -0.529818,2.160025 -0.529817,0.672461 -1.518131,0.672461 -0.580761,0 -0.947558,-0.213965 -0.356608,-0.224153 -0.580762,-0.601139 h -0.07132 q 0.02038,0.142643 0.04075,0.387175 0.02038,0.234342 0.03057,0.458496 0.01019,0.234342 0.01019,0.387174 v 0.703027 q 0,0.285287 0.112077,0.42793 0.122265,0.142643 0.285286,0.183398 0.17321,0.05094 0.326042,0.05094 h 0.224153 v 0.540007 z m 3.433626,-3.077018 q 0.50944,0 0.733593,-0.50944 0.224154,-0.519629 0.224154,-1.558886 0,-1.01888 -0.224154,-1.558887 -0.224153,-0.540006 -0.723405,-0.540006 -0.611328,0 -0.835481,0.540006 -0.213965,0.540007 -0.213965,1.548698 0,1.059635 0.213965,1.569075 0.224153,0.50944 0.825293,0.50944 z"
           id="path8262"
           style="stroke-width:0.850508" />
        <path
           d="m 44.096251,86.67572 q -0.366797,0 -0.621517,-0.17321 -0.244531,-0.183398 -0.244531,-0.560384 0,-0.387174 0.244531,-0.560384 0.25472,-0.173209 0.621517,-0.173209 0.356608,0 0.611328,0.173209 0.264908,0.17321 0.264908,0.560384 0,0.376986 -0.264908,0.560384 -0.25472,0.17321 -0.611328,0.17321 z m -1.569076,6.378189 v -0.540007 h 0.122266 q 0.152832,0 0.315853,-0.04076 0.173209,-0.05094 0.285286,-0.193587 0.122266,-0.142643 0.122266,-0.42793 V 88.75423 q 0,-0.264909 -0.122266,-0.397363 -0.122265,-0.142643 -0.295475,-0.183399 -0.163021,-0.04076 -0.305664,-0.04076 h -0.122266 v -0.540006 h 2.394368 v 4.258918 q 0,0.285287 0.112077,0.42793 0.122266,0.142643 0.285287,0.193587 0.173209,0.04076 0.326041,0.04076 h 0.122266 v 0.540007 z"
           id="path8264"
           style="stroke-width:0.850508" />
        <path
           d="m 48.294029,93.155797 q -1.110579,0 -1.579264,-0.336231 -0.468685,-0.346419 -0.468685,-0.855859 0,-0.33623 0.163021,-0.499251 0.163021,-0.163021 0.387175,-0.213965 0.224153,-0.06113 0.397363,-0.06113 0,0.631706 0.295475,0.998503 0.305664,0.366796 0.804915,0.366796 0.529818,0 0.76416,-0.203776 0.244531,-0.203776 0.244531,-0.489062 0,-0.33623 -0.264909,-0.550195 -0.264908,-0.213965 -0.988313,-0.468685 -0.825293,-0.285286 -1.263411,-0.672461 -0.438119,-0.397363 -0.438119,-1.080013 0,-0.815104 0.60114,-1.212467 0.601139,-0.407552 1.589452,-0.407552 0.641895,0 1.029069,0.142643 0.397363,0.132455 0.570573,0.356608 0.183398,0.213965 0.183398,0.448308 0,0.346419 -0.244531,0.529817 -0.234342,0.17321 -0.794726,0.17321 0,-0.50944 -0.224154,-0.784538 -0.224154,-0.285286 -0.672461,-0.285286 -0.326041,0 -0.580761,0.163021 -0.244531,0.152832 -0.244531,0.468684 0,0.213965 0.112076,0.376986 0.122266,0.163021 0.42793,0.315853 0.305664,0.152832 0.855859,0.346419 0.68265,0.234342 1.110579,0.621517 0.438119,0.376985 0.438119,1.01888 0,0.84567 -0.580762,1.324544 -0.580762,0.468685 -1.630208,0.468685 z"
           id="path8266"
           style="stroke-width:0.850508" />
        <path
           d="m 53.918254,93.155797 q -0.743783,0 -1.314356,-0.264909 -0.570572,-0.275098 -0.896614,-0.886426 -0.315853,-0.621517 -0.315853,-1.660774 0,-1.100391 0.326042,-1.721907 0.33623,-0.631706 0.896614,-0.896615 0.570573,-0.264909 1.2736,-0.264909 0.988314,0 1.497754,0.315853 0.519629,0.305664 0.519629,0.753971 0,0.224154 -0.112077,0.417741 -0.101888,0.193587 -0.387175,0.326042 -0.285286,0.122265 -0.815104,0.122265 0,-0.356608 -0.06113,-0.652083 -0.06113,-0.295475 -0.203776,-0.478873 -0.142644,-0.183399 -0.397364,-0.183399 -0.295475,0 -0.519628,0.203776 -0.213965,0.193587 -0.336231,0.692839 -0.112077,0.489062 -0.112077,1.35511 0,1.029069 0.285287,1.548698 0.285286,0.50944 0.927181,0.50944 0.529817,0 0.916992,-0.234343 0.387174,-0.244531 0.560384,-0.59095 0.122265,0.08151 0.183398,0.203776 0.06113,0.122265 0.06113,0.264909 0,0.25472 -0.213965,0.519628 -0.203776,0.25472 -0.641894,0.42793 -0.438119,0.17321 -1.120767,0.17321 z"
           id="path8268"
           style="stroke-width:0.850508" />
        <path
           d="m 58.024345,86.67572 q -0.366796,0 -0.621516,-0.17321 -0.244532,-0.183398 -0.244532,-0.560384 0,-0.387174 0.244532,-0.560384 0.25472,-0.173209 0.621516,-0.173209 0.356608,0 0.611328,0.173209 0.264909,0.17321 0.264909,0.560384 0,0.376986 -0.264909,0.560384 -0.25472,0.17321 -0.611328,0.17321 z m -1.569075,6.378189 v -0.540007 h 0.122266 q 0.152832,0 0.315853,-0.04076 0.173209,-0.05094 0.285286,-0.193587 0.122266,-0.142643 0.122266,-0.42793 V 88.75423 q 0,-0.264909 -0.122266,-0.397363 -0.122266,-0.142643 -0.295475,-0.183399 -0.163021,-0.04076 -0.305664,-0.04076 H 56.45527 v -0.540006 h 2.394368 v 4.258918 q 0,0.285287 0.112077,0.42793 0.122266,0.142643 0.285286,0.193587 0.17321,0.04076 0.326042,0.04076 h 0.122266 v 0.540007 z"
           id="path8270"
           style="stroke-width:0.850508" />
        <path
           d="m 60.072285,93.053909 v -0.540007 h 0.02038 q 0.346419,0 0.570573,-0.122265 0.224153,-0.122266 0.224153,-0.580762 V 88.79499 q 0,-0.427929 -0.203776,-0.540006 -0.193587,-0.122266 -0.529817,-0.122266 h -0.03057 v -0.540006 h 2.139648 l 0.132455,0.723405 h 0.05094 q 0.203776,-0.376986 0.438118,-0.560384 0.244531,-0.183399 0.519629,-0.234343 0.275097,-0.06113 0.601139,-0.06113 0.784538,0 1.232845,0.468685 0.448307,0.468685 0.448307,1.497754 V 91.7905 q 0,0.468685 0.163021,0.60114 0.173209,0.122265 0.519629,0.122265 h 0.03057 v 0.540007 h -2.261914 v -3.352116 q 0,-0.662272 -0.183398,-1.01888 -0.183398,-0.356608 -0.631706,-0.356608 -0.33623,0 -0.529817,0.224154 -0.193587,0.213965 -0.275098,0.580762 -0.08151,0.356608 -0.08151,0.774348 v 1.946061 q 0,0.42793 0.193587,0.550195 0.203776,0.112077 0.540006,0.112077 h 0.03057 v 0.540007 z"
           id="path8272"
           style="stroke-width:0.850508" />
        <path
           d="m 69.068995,95.499221 q -2.384179,0 -2.384179,-1.416244 0,-0.540006 0.356608,-0.835481 0.356608,-0.295475 1.01888,-0.346419 -0.275098,-0.112077 -0.50944,-0.326042 -0.234343,-0.224154 -0.234343,-0.580762 0,-0.33623 0.25472,-0.580761 0.25472,-0.25472 0.652084,-0.489063 -0.448308,-0.16302 -0.743783,-0.560384 -0.295475,-0.397363 -0.295475,-1.01888 0,-0.896614 0.519629,-1.385676 0.519629,-0.499252 1.60983,-0.499252 0.356608,0 0.662272,0.0917 0.315853,0.0917 0.550195,0.224153 0.264909,-0.285286 0.50944,-0.427929 0.244532,-0.142644 0.550196,-0.142644 0.366796,0 0.550195,0.17321 0.183398,0.17321 0.183398,0.407552 0,0.234342 -0.152832,0.407552 -0.152832,0.17321 -0.570573,0.17321 0,-0.203776 -0.122265,-0.315853 -0.122266,-0.112077 -0.264909,-0.112077 -0.203776,0 -0.33623,0.112077 0.203776,0.234342 0.346419,0.580761 0.152832,0.336231 0.152832,0.713216 0,0.774349 -0.499251,1.283789 -0.499252,0.499251 -1.558887,0.499251 -0.112077,0 -0.305664,-0.01019 -0.193587,-0.01019 -0.285286,-0.02038 -0.142643,0.06113 -0.25472,0.203776 -0.112077,0.132454 -0.112077,0.315853 0,0.173209 0.132454,0.25472 0.132455,0.07132 0.34642,0.07132 h 1.232844 q 1.01888,0 1.487565,0.417741 0.468685,0.407552 0.468685,1.141146 0,0.937369 -0.723405,1.467187 -0.723405,0.529818 -2.231347,0.529818 z m 0.213965,-4.972135 q 0.407552,0 0.550195,-0.315853 0.142643,-0.326041 0.142643,-0.876236 0,-0.560384 -0.152832,-0.906804 -0.142643,-0.356608 -0.550195,-0.356608 -0.397363,0 -0.550195,0.356608 -0.152832,0.356608 -0.152832,0.916992 0,0.529818 0.152832,0.85586 0.163021,0.326041 0.560384,0.326041 z m -0.193587,4.360807 q 0.896614,0 1.304166,-0.25472 0.407552,-0.25472 0.407552,-0.76416 0,-0.326042 -0.203776,-0.458496 -0.203776,-0.122266 -0.621517,-0.122266 h -1.181901 q -0.203776,0 -0.41774,0.05094 -0.203776,0.06113 -0.34642,0.224154 -0.142643,0.16302 -0.142643,0.499251 0,0.825293 1.202279,0.825293 z"
           id="path8274"
           style="stroke-width:0.850508" />
        <path
           d="m 78.137024,93.155797 q -1.304167,0 -1.976628,-0.733594 -0.662272,-0.733594 -0.662272,-2.068326 0,-1.436621 0.652084,-2.160026 0.662272,-0.733594 1.874739,-0.733594 1.110579,0 1.742285,0.621517 0.641894,0.621517 0.641894,1.833984 v 0.519629 H 77.0672 q 0.03057,1.029069 0.376985,1.497754 0.356608,0.458496 0.988314,0.458496 0.529817,0 0.896614,-0.234343 0.366797,-0.244531 0.540007,-0.59095 0.275097,0.152832 0.275097,0.499251 0,0.438118 -0.489062,0.76416 -0.489063,0.326042 -1.518131,0.326042 z m -1.049447,-3.372493 h 1.762663 q 0,-0.784538 -0.183399,-1.222656 -0.183398,-0.438119 -0.621517,-0.438119 -0.427929,0 -0.682649,0.42793 -0.25472,0.42793 -0.275098,1.232845 z"
           id="path8276"
           style="stroke-width:0.850508" />
        <path
           d="m 81.010255,93.053909 v -0.540007 h 0.122266 q 0.152832,0 0.315853,-0.04076 0.173209,-0.05094 0.285286,-0.193587 0.122266,-0.142643 0.122266,-0.42793 v -5.379686 q 0,-0.264909 -0.122266,-0.397363 -0.122266,-0.142644 -0.295475,-0.183399 -0.163021,-0.04076 -0.305664,-0.04076 h -0.122266 v -0.540006 h 2.394368 v 6.541209 q 0,0.285287 0.112077,0.42793 0.122266,0.142643 0.285286,0.193587 0.17321,0.04076 0.326042,0.04076 h 0.122266 v 0.540007 z"
           id="path8278"
           style="stroke-width:0.850508" />
        <path
           d="m 86.165783,86.67572 q -0.366797,0 -0.621517,-0.17321 -0.244531,-0.183398 -0.244531,-0.560384 0,-0.387174 0.244531,-0.560384 0.25472,-0.173209 0.621517,-0.173209 0.356608,0 0.611328,0.173209 0.264909,0.17321 0.264909,0.560384 0,0.376986 -0.264909,0.560384 -0.25472,0.17321 -0.611328,0.17321 z m -1.569075,6.378189 v -0.540007 h 0.122265 q 0.152832,0 0.315853,-0.04076 0.17321,-0.05094 0.285287,-0.193587 0.122265,-0.142643 0.122265,-0.42793 V 88.75423 q 0,-0.264909 -0.122265,-0.397363 -0.122266,-0.142643 -0.295476,-0.183399 -0.16302,-0.04076 -0.305664,-0.04076 h -0.122265 v -0.540006 h 2.394368 v 4.258918 q 0,0.285287 0.112077,0.42793 0.122265,0.142643 0.285286,0.193587 0.17321,0.04076 0.326042,0.04076 h 0.122265 v 0.540007 z"
           id="path8280"
           style="stroke-width:0.850508" />
        <path
           d="m 90.485825,93.155797 q -0.682649,0 -1.090201,-0.356608 -0.407552,-0.356608 -0.407552,-1.253223 V 88.28555 h -0.76416 v -0.519629 q 0.326041,0 0.580761,-0.122265 0.264909,-0.132455 0.417741,-0.305664 0.315853,-0.336231 0.468685,-1.008691 h 0.84567 v 1.263411 h 1.304167 v 0.692838 h -1.304167 v 3.158528 q 0,0.458496 0.152832,0.672461 0.163021,0.213965 0.519629,0.213965 0.203776,0 0.376986,-0.02038 0.183398,-0.03057 0.346419,-0.07132 v 0.662272 q -0.163021,0.07132 -0.540007,0.16302 -0.366796,0.0917 -0.906803,0.0917 z"
           id="path8282"
           style="stroke-width:0.850508" />
        <path
           d="m 92.594915,94.622984 v -0.529818 q 0.438119,-0.163021 0.662272,-0.33623 0.234343,-0.163021 0.234343,-0.458496 0,-0.142643 -0.112077,-0.224154 -0.112077,-0.07132 -0.264909,-0.152832 -0.142643,-0.0917 -0.25472,-0.244531 -0.112077,-0.163021 -0.112077,-0.468685 0,-0.346419 0.203776,-0.519629 0.213965,-0.183398 0.529818,-0.183398 0.427929,0 0.682649,0.305664 0.25472,0.295475 0.25472,0.815104 0,0.652083 -0.41774,1.19209 -0.417741,0.540006 -1.406055,0.804915 z"
           id="path8284"
           style="stroke-width:0.850508" />
      </g>
    </g>
    <g
       aria-label="GUI"
       transform="matrix(1.7281032,0,0,2.1154833,85.402153,-29.204853)"
       id="text5703"
       style="font-size:40px;line-height:1.25;font-family:'Noto Serif';-inkscape-font-specification:'Noto Serif';letter-spacing:0px;word-spacing:0px;white-space:pre;shape-inside:url(#rect5705);display:inline;stroke:#bf0000;stroke-width:1.04602;stroke-opacity:1">
      <path
         d="m -31.369141,60.884421 v -4.824219 h 12.460938 v 11.40625 q -1.816406,1.757813 -5.273438,3.105469 -3.4375,1.328125 -6.972656,1.328125 -4.492187,0 -7.832031,-1.875 -3.339844,-1.894531 -5.019531,-5.390625 -1.679688,-3.515625 -1.679688,-7.636719 0,-4.472656 1.875,-7.949219 1.875,-3.476562 5.488281,-5.332031 2.753907,-1.425781 6.855469,-1.425781 5.332031,0 8.320313,2.246094 3.007812,2.226562 3.867187,6.171875 l -5.742187,1.074218 q -0.605469,-2.109375 -2.285157,-3.320312 -1.660156,-1.230469 -4.160156,-1.230469 -3.789062,0 -6.035156,2.402344 -2.226563,2.402344 -2.226563,7.128906 0,5.097656 2.265625,7.65625 2.265625,2.539063 5.9375,2.539063 1.816407,0 3.632813,-0.703125 1.835937,-0.722657 3.144531,-1.738282 v -3.632812 z"
         style="font-weight:bold;font-family:Arial;-inkscape-font-specification:'Arial, Bold';fill:#ff0000;stroke:#bf0000;stroke-width:1.04602;stroke-opacity:1"
         id="path8287" />
      <path
         d="m -13.615234,42.778952 h 5.7812496 v 15.507813 q 0,3.691406 0.2148438,4.785156 0.3710937,1.757812 1.7578125,2.832031 1.40625,1.054688 3.828125,1.054688 2.46093748,0 3.7109375,-0.996094 1.25,-1.015625 1.5039062,-2.480469 0.2539063,-1.464844 0.2539063,-4.863281 V 42.778952 h 5.78125 v 15.039063 q 0,5.15625 -0.46875,7.285156 -0.46875,2.128906 -1.7382813,3.59375 -1.25,1.464844 -3.359375,2.34375 -2.109375,0.859375 -5.5078125,0.859375 -4.1015625,0 -6.2304687,-0.9375 -2.1093754,-0.957031 -3.3398434,-2.460938 -1.230469,-1.523437 -1.621094,-3.183593 -0.566406,-2.460938 -0.566406,-7.265625 z"
         style="font-weight:bold;font-family:Arial;-inkscape-font-specification:'Arial, Bold';fill:#ff0000;stroke:#bf0000;stroke-width:1.04602;stroke-opacity:1"
         id="path8289" />
      <path
         d="M 15.134766,71.411765 V 42.778952 h 5.78125 v 28.632813 z"
         style="font-weight:bold;font-family:Arial;-inkscape-font-specification:'Arial, Bold';fill:#ff0000;stroke:#bf0000;stroke-width:1.04602;stroke-opacity:1"
         id="path8291" />
    </g>
    <path
       style="fill:none;stroke:#8c8c8c;stroke-width:5;stroke-linecap:butt;stroke-linejoin:miter;stroke-dasharray:none;stroke-opacity:1"
       d="M 28.487124,33.123921 18.391999,19.396309"
       id="path7928" />
    <ellipse
       style="fill:#1500ff;fill-opacity:1;stroke:#0080ff;stroke-width:2;stroke-linecap:round;stroke-linejoin:bevel;stroke-dasharray:none;stroke-opacity:1"
       id="path5950"
       cx="14.642347"
       cy="14.222191"
       rx="11.803717"
       ry="11.782333" />
    <ellipse
       style="fill:#ffffff;fill-opacity:1;stroke:none;stroke-width:3.00001;stroke-linecap:round;stroke-linejoin:bevel;stroke-dasharray:none;stroke-opacity:1"
       id="path8031"
       cx="16.699749"
       cy="11.075387"
       rx="5.2460966"
       ry="5.2365923" />
  </g>
</svg>
